<mxfile host="app.diagrams.net" modified="2021-12-08T13:55:47.879Z" agent="5.0 (Windows)" etag="rbo20VCxDMBYEJRFtUQF" version="15.9.1" type="github">
  <diagram id="H4lATcMI-bZScz2o-kdU" name="Page-1">
    <mxGraphModel dx="1240" dy="554" grid="1" gridSize="10" guides="1" tooltips="1" connect="1" arrows="1" fold="1" page="1" pageScale="1" pageWidth="850" pageHeight="1100" math="0" shadow="0">
      <root>
        <mxCell id="0" />
        <mxCell id="1" parent="0" />
        <mxCell id="sEhrW3wy_zQRSTeb6eg7-7" style="edgeStyle=orthogonalEdgeStyle;rounded=0;orthogonalLoop=1;jettySize=auto;html=1;entryX=0.024;entryY=0.588;entryDx=0;entryDy=0;entryPerimeter=0;" parent="1" source="sEhrW3wy_zQRSTeb6eg7-1" target="sEhrW3wy_zQRSTeb6eg7-5" edge="1">
          <mxGeometry relative="1" as="geometry" />
        </mxCell>
        <mxCell id="sEhrW3wy_zQRSTeb6eg7-1" value="Source Code File" style="swimlane;fillColor=#e1d5e7;strokeColor=#9673a6;startSize=23;fontStyle=1;fontSize=14;" parent="1" vertex="1">
          <mxGeometry x="133.75" y="150" width="180" height="150" as="geometry" />
        </mxCell>
        <mxCell id="sEhrW3wy_zQRSTeb6eg7-4" value="&lt;div&gt;&lt;br&gt;&lt;/div&gt;&lt;div&gt;# Python Script Source File&lt;/div&gt;&lt;div&gt;&lt;br&gt;&lt;/div&gt;&lt;div&gt;def compare(a,b):&lt;/div&gt;&lt;div&gt;&amp;nbsp;&amp;nbsp; if a&amp;gt;b :&lt;/div&gt;&lt;div&gt;&amp;nbsp;&amp;nbsp;&amp;nbsp;&amp;nbsp;&amp;nbsp;&amp;nbsp; return a&lt;/div&gt;&lt;div&gt;&amp;nbsp;&amp;nbsp; else:&lt;/div&gt;&lt;div&gt;&amp;nbsp;&amp;nbsp;&amp;nbsp;&amp;nbsp;&amp;nbsp;&amp;nbsp; return b&lt;/div&gt;&lt;div&gt;&lt;br&gt;&lt;/div&gt;&lt;div&gt;&lt;br&gt;&lt;/div&gt;" style="text;html=1;spacing=5;spacingTop=-20;whiteSpace=wrap;overflow=hidden;rounded=0;fontStyle=1" parent="sEhrW3wy_zQRSTeb6eg7-1" vertex="1">
          <mxGeometry x="10" y="30" width="160" height="110" as="geometry" />
        </mxCell>
        <mxCell id="sEhrW3wy_zQRSTeb6eg7-10" style="edgeStyle=orthogonalEdgeStyle;rounded=0;orthogonalLoop=1;jettySize=auto;html=1;entryX=0;entryY=0.5;entryDx=0;entryDy=0;fontSize=20;" parent="1" source="sEhrW3wy_zQRSTeb6eg7-5" target="sEhrW3wy_zQRSTeb6eg7-9" edge="1">
          <mxGeometry relative="1" as="geometry" />
        </mxCell>
        <mxCell id="sEhrW3wy_zQRSTeb6eg7-5" value="Lexcer" style="rounded=0;whiteSpace=wrap;html=1;fontStyle=1;fontSize=20;fillColor=#ffe6cc;strokeColor=#d79b00;" parent="1" vertex="1">
          <mxGeometry x="368.75" y="178" width="85" height="80" as="geometry" />
        </mxCell>
        <mxCell id="sEhrW3wy_zQRSTeb6eg7-8" value="Token" style="text;html=1;align=center;verticalAlign=middle;resizable=0;points=[];autosize=1;strokeColor=none;fillColor=none;fontStyle=1" parent="1" vertex="1">
          <mxGeometry x="318.75" y="208" width="50" height="20" as="geometry" />
        </mxCell>
        <mxCell id="sEhrW3wy_zQRSTeb6eg7-13" style="edgeStyle=orthogonalEdgeStyle;rounded=0;orthogonalLoop=1;jettySize=auto;html=1;fontSize=20;" parent="1" source="sEhrW3wy_zQRSTeb6eg7-9" target="sEhrW3wy_zQRSTeb6eg7-12" edge="1">
          <mxGeometry relative="1" as="geometry" />
        </mxCell>
        <mxCell id="sEhrW3wy_zQRSTeb6eg7-9" value="Parser" style="whiteSpace=wrap;html=1;aspect=fixed;fontSize=20;fontStyle=1;fillColor=#dae8fc;strokeColor=#6c8ebf;" parent="1" vertex="1">
          <mxGeometry x="503.75" y="178" width="80" height="80" as="geometry" />
        </mxCell>
        <mxCell id="IFpzoaLQcP4A0a1PtxrO-4" style="edgeStyle=orthogonalEdgeStyle;rounded=0;orthogonalLoop=1;jettySize=auto;html=1;entryX=0.487;entryY=-0.02;entryDx=0;entryDy=0;entryPerimeter=0;fontSize=15;fontColor=#0000CC;" edge="1" parent="1" source="sEhrW3wy_zQRSTeb6eg7-12" target="IFpzoaLQcP4A0a1PtxrO-3">
          <mxGeometry relative="1" as="geometry" />
        </mxCell>
        <mxCell id="sEhrW3wy_zQRSTeb6eg7-12" value="Compiler" style="rounded=0;whiteSpace=wrap;html=1;fontSize=20;fontStyle=1;fillColor=#d5e8d4;strokeColor=#82b366;" parent="1" vertex="1">
          <mxGeometry x="443.75" y="310" width="200" height="60" as="geometry" />
        </mxCell>
        <mxCell id="IFpzoaLQcP4A0a1PtxrO-3" value="mp_obj_t &lt;font style=&quot;font-size: 15px&quot; color=&quot;#FF0000&quot;&gt;mp_obj_new_fun_bc&lt;/font&gt;(mp_obj_t &lt;font color=&quot;#000099&quot;&gt;def_args_in&lt;/font&gt;, mp_obj_t &lt;font color=&quot;#0000CC&quot;&gt;def_kw_args&lt;/font&gt;, const byte *&lt;font color=&quot;#0000CC&quot;&gt;code&lt;/font&gt;, const mp_uint_t *&lt;font color=&quot;#0000CC&quot;&gt;const_table&lt;/font&gt;)" style="rounded=0;whiteSpace=wrap;html=1;fontSize=14;fontStyle=1;fontFamily=Courier New;fillColor=#f5f5f5;strokeColor=#666666;fontColor=#333333;" vertex="1" parent="1">
          <mxGeometry x="341.25" y="430" width="415" height="50" as="geometry" />
        </mxCell>
        <mxCell id="IFpzoaLQcP4A0a1PtxrO-25" style="edgeStyle=orthogonalEdgeStyle;rounded=0;orthogonalLoop=1;jettySize=auto;html=1;entryX=0.5;entryY=1;entryDx=0;entryDy=0;fontSize=14;" edge="1" parent="1" source="IFpzoaLQcP4A0a1PtxrO-9" target="IFpzoaLQcP4A0a1PtxrO-18">
          <mxGeometry relative="1" as="geometry" />
        </mxCell>
        <mxCell id="IFpzoaLQcP4A0a1PtxrO-9" value="&amp;nbsp; mp_obj_fun_bc_t &amp;nbsp; " style="whiteSpace=wrap;html=1;align=center;labelBorderColor=default;fontSize=15;fontStyle=1;spacingTop=2;spacingLeft=0;spacingBottom=0;fillColor=#fad7ac;strokeColor=#b46504;" vertex="1" parent="1">
          <mxGeometry x="438.75" y="545" width="210" height="40" as="geometry" />
        </mxCell>
        <mxCell id="IFpzoaLQcP4A0a1PtxrO-13" value="" style="shape=flexArrow;endArrow=classic;html=1;rounded=0;fontSize=15;fontColor=#000000;fillColor=#000000;" edge="1" parent="1">
          <mxGeometry width="50" height="50" relative="1" as="geometry">
            <mxPoint x="545.75" y="487" as="sourcePoint" />
            <mxPoint x="545.75" y="537" as="targetPoint" />
          </mxGeometry>
        </mxCell>
        <mxCell id="IFpzoaLQcP4A0a1PtxrO-16" value="&lt;h1&gt;Create Bytecode Function Scheme&amp;nbsp; &lt;br&gt;&lt;/h1&gt;&lt;p style=&quot;font-size: 14px&quot;&gt;&lt;b&gt;&lt;span&gt;When pythonsource code, or pythonâ€™s function, compile by a compiler it calls &lt;/span&gt;&lt;i&gt;&lt;span&gt;mp_obj_new_fun&lt;/span&gt;&lt;/i&gt;&lt;span&gt;_bc() &lt;/span&gt;&lt;span&gt;function in order&lt;/span&gt;&lt;span&gt;to create and returns an structure object of &lt;/span&gt;&lt;i&gt;&lt;span&gt;mp_obj_fun_bc_t&lt;/span&gt;&lt;/i&gt;&lt;span&gt; with type&lt;/span&gt;&lt;span&gt; mp_type_fun_bc.&lt;/span&gt;&lt;/b&gt;&lt;/p&gt;" style="text;html=1;spacing=5;spacingTop=-20;whiteSpace=wrap;overflow=hidden;rounded=0;" vertex="1" parent="1">
          <mxGeometry x="40" y="40" width="780" height="100" as="geometry" />
        </mxCell>
        <mxCell id="IFpzoaLQcP4A0a1PtxrO-18" value="mp_type_fun_bc " style="swimlane;fontStyle=1;childLayout=stackLayout;horizontal=1;startSize=30;horizontalStack=0;resizeParent=1;resizeParentMax=0;resizeLast=0;collapsible=1;marginBottom=0;fontSize=18;fillColor=#ffff88;strokeColor=#36393d;" vertex="1" parent="1">
          <mxGeometry x="53.75" y="335" width="260" height="210" as="geometry">
            <mxRectangle x="53.75" y="335" width="180" height="30" as="alternateBounds" />
          </mxGeometry>
        </mxCell>
        <mxCell id="IFpzoaLQcP4A0a1PtxrO-19" value=" .flags = MP_TYPE_FLAG_BINDS_SELF," style="text;strokeColor=none;fillColor=none;align=left;verticalAlign=middle;spacingLeft=4;spacingRight=4;overflow=hidden;points=[[0,0.5],[1,0.5]];portConstraint=eastwest;rotatable=0;fontSize=14;fontStyle=1" vertex="1" parent="IFpzoaLQcP4A0a1PtxrO-18">
          <mxGeometry y="30" width="260" height="30" as="geometry" />
        </mxCell>
        <mxCell id="IFpzoaLQcP4A0a1PtxrO-20" value=".name = MP_QSTR_function," style="text;strokeColor=none;fillColor=none;align=left;verticalAlign=middle;spacingLeft=4;spacingRight=4;overflow=hidden;points=[[0,0.5],[1,0.5]];portConstraint=eastwest;rotatable=0;fontSize=14;fontStyle=1" vertex="1" parent="IFpzoaLQcP4A0a1PtxrO-18">
          <mxGeometry y="60" width="260" height="30" as="geometry" />
        </mxCell>
        <mxCell id="IFpzoaLQcP4A0a1PtxrO-22" value=".print = fun_bc_print," style="text;strokeColor=none;fillColor=none;align=left;verticalAlign=middle;spacingLeft=4;spacingRight=4;overflow=hidden;points=[[0,0.5],[1,0.5]];portConstraint=eastwest;rotatable=0;fontSize=14;fontStyle=1" vertex="1" parent="IFpzoaLQcP4A0a1PtxrO-18">
          <mxGeometry y="90" width="260" height="30" as="geometry" />
        </mxCell>
        <mxCell id="IFpzoaLQcP4A0a1PtxrO-24" value=".call = fun_bc_call," style="text;strokeColor=#36393d;fillColor=#ffcccc;align=left;verticalAlign=middle;spacingLeft=4;spacingRight=4;overflow=hidden;points=[[0,0.5],[1,0.5]];portConstraint=eastwest;rotatable=0;fontSize=14;fontStyle=1" vertex="1" parent="IFpzoaLQcP4A0a1PtxrO-18">
          <mxGeometry y="120" width="260" height="30" as="geometry" />
        </mxCell>
        <mxCell id="IFpzoaLQcP4A0a1PtxrO-23" value=".unary_op = mp_generic_unary_op," style="text;strokeColor=none;fillColor=none;align=left;verticalAlign=middle;spacingLeft=4;spacingRight=4;overflow=hidden;points=[[0,0.5],[1,0.5]];portConstraint=eastwest;rotatable=0;fontSize=14;fontStyle=1" vertex="1" parent="IFpzoaLQcP4A0a1PtxrO-18">
          <mxGeometry y="150" width="260" height="30" as="geometry" />
        </mxCell>
        <mxCell id="IFpzoaLQcP4A0a1PtxrO-21" value=".attr = mp_obj_fun_bc_attr," style="text;strokeColor=none;fillColor=none;align=left;verticalAlign=middle;spacingLeft=4;spacingRight=4;overflow=hidden;points=[[0,0.5],[1,0.5]];portConstraint=eastwest;rotatable=0;fontSize=14;fontStyle=1" vertex="1" parent="IFpzoaLQcP4A0a1PtxrO-18">
          <mxGeometry y="180" width="260" height="30" as="geometry" />
        </mxCell>
        <mxCell id="IFpzoaLQcP4A0a1PtxrO-27" value="&lt;h1 align=&quot;justify&quot;&gt;fun_bc_call&amp;nbsp; &lt;br&gt;&lt;/h1&gt;&lt;p style=&quot;font-size: 14px&quot; align=&quot;justify&quot;&gt;&lt;b&gt;this function will be execute when an mp_obj_fun_bc_t calls. it first create an mp_state_code_t object for control and monitoring execution of function.it also get memory base on sate_size of function; then calls&amp;nbsp; mp_setup_code_state() function for preparing code state. finally created code state object will be pass to mp_execute_bytecode for run it on virtual machine(vm). &lt;/b&gt;&lt;br&gt;&lt;/p&gt;" style="text;html=1;spacing=5;spacingTop=-20;whiteSpace=wrap;overflow=hidden;rounded=0;align=left;verticalAlign=middle;" vertex="1" parent="1">
          <mxGeometry x="35" y="600" width="780" height="130" as="geometry" />
        </mxCell>
        <mxCell id="IFpzoaLQcP4A0a1PtxrO-29" value="" style="endArrow=none;dashed=1;html=1;rounded=0;fontSize=23;entryX=0;entryY=0.25;entryDx=0;entryDy=0;fontStyle=1;strokeWidth=2;" edge="1" parent="1" source="IFpzoaLQcP4A0a1PtxrO-24" target="IFpzoaLQcP4A0a1PtxrO-27">
          <mxGeometry width="50" height="50" relative="1" as="geometry">
            <mxPoint x="460" y="770" as="sourcePoint" />
            <mxPoint x="510" y="720" as="targetPoint" />
            <Array as="points">
              <mxPoint x="20" y="470" />
              <mxPoint x="20" y="625" />
            </Array>
          </mxGeometry>
        </mxCell>
        <mxCell id="IFpzoaLQcP4A0a1PtxrO-35" style="edgeStyle=orthogonalEdgeStyle;rounded=0;orthogonalLoop=1;jettySize=auto;html=1;fontSize=18;strokeWidth=2;" edge="1" parent="1" source="IFpzoaLQcP4A0a1PtxrO-31" target="IFpzoaLQcP4A0a1PtxrO-33">
          <mxGeometry relative="1" as="geometry" />
        </mxCell>
        <mxCell id="IFpzoaLQcP4A0a1PtxrO-31" value="Start" style="strokeWidth=2;html=1;shape=mxgraph.flowchart.start_1;whiteSpace=wrap;fontSize=18;fillColor=#f9f7ed;strokeColor=#36393d;fontStyle=1" vertex="1" parent="1">
          <mxGeometry x="622.5" y="740" width="100" height="40" as="geometry" />
        </mxCell>
        <mxCell id="IFpzoaLQcP4A0a1PtxrO-37" style="edgeStyle=orthogonalEdgeStyle;rounded=0;orthogonalLoop=1;jettySize=auto;html=1;fontSize=18;strokeWidth=2;" edge="1" parent="1" source="IFpzoaLQcP4A0a1PtxrO-33" target="IFpzoaLQcP4A0a1PtxrO-36">
          <mxGeometry relative="1" as="geometry" />
        </mxCell>
        <mxCell id="IFpzoaLQcP4A0a1PtxrO-33" value="Decode Code State of given Function" style="rounded=1;whiteSpace=wrap;html=1;absoluteArcSize=1;arcSize=14;strokeWidth=2;fontSize=18;fillColor=#ffcccc;fontStyle=1;strokeColor=#36393d;" vertex="1" parent="1">
          <mxGeometry x="547.5" y="807" width="250" height="50" as="geometry" />
        </mxCell>
        <mxCell id="IFpzoaLQcP4A0a1PtxrO-47" style="edgeStyle=orthogonalEdgeStyle;rounded=0;orthogonalLoop=1;jettySize=auto;html=1;fontSize=18;strokeWidth=2;" edge="1" parent="1" source="IFpzoaLQcP4A0a1PtxrO-36" target="IFpzoaLQcP4A0a1PtxrO-46">
          <mxGeometry relative="1" as="geometry" />
        </mxCell>
        <mxCell id="IFpzoaLQcP4A0a1PtxrO-36" value="Allocate Memory base on CodeState object + Sate_Size " style="rounded=1;whiteSpace=wrap;html=1;absoluteArcSize=1;arcSize=14;strokeWidth=2;fontSize=18;fillColor=#ffcccc;fontStyle=1;strokeColor=#36393d;" vertex="1" parent="1">
          <mxGeometry x="540" y="902" width="265" height="60" as="geometry" />
        </mxCell>
        <mxCell id="IFpzoaLQcP4A0a1PtxrO-40" value="Start" style="strokeWidth=2;html=1;shape=mxgraph.flowchart.start_1;whiteSpace=wrap;fontSize=18;fillColor=#f9f7ed;strokeColor=#36393d;fontStyle=1" vertex="1" parent="1">
          <mxGeometry x="622.5" y="740" width="100" height="40" as="geometry" />
        </mxCell>
        <mxCell id="IFpzoaLQcP4A0a1PtxrO-41" value="Decode Code State of given Function" style="rounded=1;whiteSpace=wrap;html=1;absoluteArcSize=1;arcSize=14;strokeWidth=2;fontSize=18;fillColor=#ffcccc;fontStyle=1;strokeColor=#36393d;" vertex="1" parent="1">
          <mxGeometry x="547.5" y="807" width="250" height="50" as="geometry" />
        </mxCell>
        <mxCell id="IFpzoaLQcP4A0a1PtxrO-42" value="Start" style="strokeWidth=2;html=1;shape=mxgraph.flowchart.start_1;whiteSpace=wrap;fontSize=18;fillColor=#f9f7ed;strokeColor=#36393d;fontStyle=1" vertex="1" parent="1">
          <mxGeometry x="622.5" y="740" width="100" height="40" as="geometry" />
        </mxCell>
        <mxCell id="IFpzoaLQcP4A0a1PtxrO-43" value="Decode Code State of given Function" style="rounded=1;whiteSpace=wrap;html=1;absoluteArcSize=1;arcSize=14;strokeWidth=2;fontSize=18;fillColor=#ffcccc;fontStyle=1;strokeColor=#36393d;" vertex="1" parent="1">
          <mxGeometry x="547.5" y="807" width="250" height="50" as="geometry" />
        </mxCell>
        <mxCell id="IFpzoaLQcP4A0a1PtxrO-57" style="edgeStyle=orthogonalEdgeStyle;rounded=0;orthogonalLoop=1;jettySize=auto;html=1;entryX=0.5;entryY=0;entryDx=0;entryDy=0;fontSize=18;fontColor=#0000FF;strokeWidth=2;" edge="1" parent="1" source="IFpzoaLQcP4A0a1PtxrO-46" target="IFpzoaLQcP4A0a1PtxrO-50">
          <mxGeometry relative="1" as="geometry">
            <Array as="points">
              <mxPoint x="520" y="1035" />
              <mxPoint x="520" y="730" />
              <mxPoint x="253" y="730" />
            </Array>
          </mxGeometry>
        </mxCell>
        <mxCell id="IFpzoaLQcP4A0a1PtxrO-46" value="&lt;div&gt;Initial Code Sate by calling&lt;/div&gt;&lt;div&gt;mp_setup_code_state()&lt;br&gt;&lt;/div&gt;" style="rounded=1;whiteSpace=wrap;html=1;absoluteArcSize=1;arcSize=14;strokeWidth=2;fontSize=18;fillColor=#ffcccc;fontStyle=1;strokeColor=#36393d;" vertex="1" parent="1">
          <mxGeometry x="540" y="1005" width="265" height="60" as="geometry" />
        </mxCell>
        <mxCell id="IFpzoaLQcP4A0a1PtxrO-48" value="Code_Size" style="text;html=1;strokeColor=none;fillColor=none;align=center;verticalAlign=middle;whiteSpace=wrap;rounded=0;fontSize=18;fontStyle=1;fontColor=#0000FF;" vertex="1" parent="1">
          <mxGeometry x="592.25" y="865" width="60" height="30" as="geometry" />
        </mxCell>
        <mxCell id="IFpzoaLQcP4A0a1PtxrO-49" value="Code_State" style="text;html=1;strokeColor=none;fillColor=none;align=center;verticalAlign=middle;whiteSpace=wrap;rounded=0;fontSize=18;fontStyle=1;fontColor=#0000FF;" vertex="1" parent="1">
          <mxGeometry x="699.25" y="963" width="60" height="30" as="geometry" />
        </mxCell>
        <mxCell id="IFpzoaLQcP4A0a1PtxrO-53" style="edgeStyle=orthogonalEdgeStyle;rounded=0;orthogonalLoop=1;jettySize=auto;html=1;fontSize=18;fontColor=#0000FF;strokeWidth=2;" edge="1" parent="1" source="IFpzoaLQcP4A0a1PtxrO-50" target="IFpzoaLQcP4A0a1PtxrO-52">
          <mxGeometry relative="1" as="geometry">
            <Array as="points">
              <mxPoint x="253" y="830" />
              <mxPoint x="309" y="830" />
            </Array>
          </mxGeometry>
        </mxCell>
        <mxCell id="IFpzoaLQcP4A0a1PtxrO-50" value="&lt;div&gt;Execute code_state by calling&lt;/div&gt;&lt;div&gt;mp_execute_bytecode() &lt;br&gt;&lt;/div&gt;" style="rounded=1;whiteSpace=wrap;html=1;absoluteArcSize=1;arcSize=14;strokeWidth=2;fontSize=18;fillColor=#ffcccc;fontStyle=1;strokeColor=#36393d;" vertex="1" parent="1">
          <mxGeometry x="119.99" y="760" width="265" height="60" as="geometry" />
        </mxCell>
        <mxCell id="IFpzoaLQcP4A0a1PtxrO-69" style="edgeStyle=orthogonalEdgeStyle;rounded=0;orthogonalLoop=1;jettySize=auto;html=1;entryX=0.5;entryY=0;entryDx=0;entryDy=0;fontSize=18;fontColor=#0000FF;strokeWidth=2;" edge="1" parent="1" source="IFpzoaLQcP4A0a1PtxrO-52" target="IFpzoaLQcP4A0a1PtxrO-54">
          <mxGeometry relative="1" as="geometry">
            <Array as="points">
              <mxPoint x="140" y="890" />
            </Array>
          </mxGeometry>
        </mxCell>
        <mxCell id="IFpzoaLQcP4A0a1PtxrO-70" style="edgeStyle=orthogonalEdgeStyle;rounded=0;orthogonalLoop=1;jettySize=auto;html=1;fontSize=18;fontColor=#0000FF;strokeWidth=2;" edge="1" parent="1" source="IFpzoaLQcP4A0a1PtxrO-52" target="IFpzoaLQcP4A0a1PtxrO-55">
          <mxGeometry relative="1" as="geometry">
            <Array as="points">
              <mxPoint x="420" y="890" />
            </Array>
          </mxGeometry>
        </mxCell>
        <mxCell id="IFpzoaLQcP4A0a1PtxrO-52" value="Result ?" style="rhombus;whiteSpace=wrap;html=1;fontSize=18;fontColor=#0000FF;strokeColor=default;fillColor=#E6FFCC;gradientColor=#FFF2CC;" vertex="1" parent="1">
          <mxGeometry x="233.74" y="850" width="151.25" height="80" as="geometry" />
        </mxCell>
        <mxCell id="IFpzoaLQcP4A0a1PtxrO-72" style="edgeStyle=orthogonalEdgeStyle;rounded=0;orthogonalLoop=1;jettySize=auto;html=1;fontSize=18;fontColor=#0000FF;strokeWidth=2;" edge="1" parent="1" source="IFpzoaLQcP4A0a1PtxrO-54" target="IFpzoaLQcP4A0a1PtxrO-71">
          <mxGeometry relative="1" as="geometry">
            <Array as="points">
              <mxPoint x="295" y="963" />
            </Array>
          </mxGeometry>
        </mxCell>
        <mxCell id="IFpzoaLQcP4A0a1PtxrO-54" value="&lt;font style=&quot;font-size: 18px&quot;&gt;return exception in code_state-&amp;gt;state[0]&lt;/font&gt;" style="rounded=1;whiteSpace=wrap;html=1;absoluteArcSize=1;arcSize=14;strokeWidth=2;fontSize=18;fillColor=#ffcccc;fontStyle=1;strokeColor=#36393d;" vertex="1" parent="1">
          <mxGeometry x="20" y="933" width="240" height="60" as="geometry" />
        </mxCell>
        <mxCell id="IFpzoaLQcP4A0a1PtxrO-73" style="edgeStyle=orthogonalEdgeStyle;rounded=0;orthogonalLoop=1;jettySize=auto;html=1;entryX=0.75;entryY=0;entryDx=0;entryDy=0;fontSize=18;fontColor=#0000FF;strokeWidth=2;" edge="1" parent="1" source="IFpzoaLQcP4A0a1PtxrO-55" target="IFpzoaLQcP4A0a1PtxrO-71">
          <mxGeometry relative="1" as="geometry">
            <Array as="points">
              <mxPoint x="338" y="970" />
            </Array>
          </mxGeometry>
        </mxCell>
        <mxCell id="IFpzoaLQcP4A0a1PtxrO-55" value="return value of top stack" style="rounded=1;whiteSpace=wrap;html=1;absoluteArcSize=1;arcSize=14;strokeWidth=2;fontSize=18;fillColor=#ffcccc;fontStyle=1;strokeColor=#36393d;" vertex="1" parent="1">
          <mxGeometry x="360" y="940" width="140" height="60" as="geometry" />
        </mxCell>
        <mxCell id="IFpzoaLQcP4A0a1PtxrO-62" value="End" style="strokeWidth=2;html=1;shape=mxgraph.flowchart.terminator;whiteSpace=wrap;fontSize=18;fontColor=#0000FF;fillColor=#E6FFCC;gradientColor=#FFF2CC;" vertex="1" parent="1">
          <mxGeometry x="53.75" y="1035" width="72.49" height="30" as="geometry" />
        </mxCell>
        <mxCell id="IFpzoaLQcP4A0a1PtxrO-75" style="edgeStyle=orthogonalEdgeStyle;rounded=0;orthogonalLoop=1;jettySize=auto;html=1;fontSize=18;fontColor=#0000FF;strokeWidth=2;" edge="1" parent="1" source="IFpzoaLQcP4A0a1PtxrO-71" target="IFpzoaLQcP4A0a1PtxrO-62">
          <mxGeometry relative="1" as="geometry" />
        </mxCell>
        <mxCell id="IFpzoaLQcP4A0a1PtxrO-71" value="Clear Code_State and memory" style="rounded=1;whiteSpace=wrap;html=1;absoluteArcSize=1;arcSize=14;strokeWidth=2;fontSize=18;fillColor=#ffcccc;fontStyle=1;strokeColor=#36393d;" vertex="1" parent="1">
          <mxGeometry x="210" y="1020" width="170" height="60" as="geometry" />
        </mxCell>
      </root>
    </mxGraphModel>
  </diagram>
</mxfile>
